# xmcd
#
# Track frame offsets:
#	150
#	12732
#	25575
#	39355
#	52575
#	65327
#	77517
#	88860
#	101237
#	114070
#	126572
#	138317
#	150890
#	164347
#	176042
#	189005
#	200695
#	213362
#
# Disc length: 2999 seconds
#
# Revision: 2
# Processed by: cddbd v1.5.2PL0 Copyright (c) Steve Scherf et al.
# Submitted via: EZCDAudioConverter 1.0.4.1
#
DISCID=e20bb512
DTITLE=Memphis Minnie - Anthology
DYEAR=1995
DGENRE=Blues
TTITLE0=Bumble bee
TTITLE1=No need you doggin' me
TTITLE2=Keep on sailin'
TTITLE3=Please don't stop him
TTITLE4=I'd rather see him dead
TTITLE5=Black widow stinger
TTITLE6=Bad outside friends
TTITLE7=Nothing is rambling
TTITLE8=Finger print blues
TTITLE9=Ma Rainey
TTITLE10=In my girlish days
TTITLE11=Me and my chauffeur
TTITLE12=I gotta make a change blues
TTITLE13=You got to get out of here
TTITLE14=Black rat swing
TTITLE15=Please set a date
TTITLE16=Love come and go
TTITLE17=When my man comes home
EXTD=
EXTT0=
EXTT1=
EXTT2=
EXTT3=
EXTT4=
EXTT5=
EXTT6=
EXTT7=
EXTT8=
EXTT9=
EXTT10=
EXTT11=
EXTT12=
EXTT13=
EXTT14=
EXTT15=
EXTT16=
EXTT17=
PLAYORDER=
